<svg xmlns="http://www.w3.org/2000/svg" width="68.275" height="26" viewBox="0 0 68.275 26"><defs><style>.a{opacity:0.8;}.b,.c{fill:#242a30;}.b{opacity:0.2;}.d{fill:#fff;}</style></defs><g class="a"><path class="b" d="M13,0A13,13,0,1,1,0,13,13,13,0,0,1,13,0Z"/><g transform="translate(2.931 2.931)"><path class="c" d="M27.707,12.938V11.421a1.539,1.539,0,0,0-2.69-1.034A10,10,0,0,0,19.569,8.8a10.176,10.176,0,0,0-5.448,1.586,1.539,1.539,0,0,0-2.69,1.034v1.517a10.069,10.069,0,1,0,16.276,0Zm-.069,10.034a2.274,2.274,0,0,1-2.276,2.276H21.224l1.241-3.1h1.172a1.268,1.268,0,0,0,.931-.966V18.11a1.285,1.285,0,0,0-1.207-1H22.017a1.266,1.266,0,0,0-1.241,1.276h-.034V21.8H18.328V18.11a1.285,1.285,0,0,0-1.207-1H15.776a1.266,1.266,0,0,0-1.241,1.276H14.5V20.9h.034a1.293,1.293,0,0,0,.966,1.241h1.069l1.172,3.1H13.707a2.274,2.274,0,0,1-2.276-2.276V14.179l3.1-1.69H24.6l3.034,1.655v8.828Z" transform="translate(-9.5 -8.8)"/><path class="d" d="M18.2,19.5l-3.1,1.69v8.793a2.274,2.274,0,0,0,2.276,2.276H21.41l-1.172-3.1H19.169a1.293,1.293,0,0,1-.966-1.241h-.034V25.4H18.2a1.266,1.266,0,0,1,1.241-1.276H20.79a1.285,1.285,0,0,1,1.207,1v3.69H24.41V25.4h.034a1.266,1.266,0,0,1,1.241-1.276h1.345a1.285,1.285,0,0,1,1.207,1V28.19a1.268,1.268,0,0,1-.931.966H26.134l-1.241,3.1h4.138a2.274,2.274,0,0,0,2.276-2.276V21.155L28.272,19.5Z" transform="translate(-13.169 -15.81)"/></g><path class="c" d="M86.838,31.779V27.262h2.241a2.537,2.537,0,0,0,.655,1.828,1.994,1.994,0,0,0,1.379.586,1.4,1.4,0,0,0,1.034-.414,1.381,1.381,0,0,0,.414-1,1.4,1.4,0,0,0-.414-1.034,5.533,5.533,0,0,0-1.483-.931,11.253,11.253,0,0,1-3.138-1.966,3.13,3.13,0,0,1-.828-2.276,3.338,3.338,0,0,1,1.069-2.69,3.742,3.742,0,0,1,2.483-.966A2.8,2.8,0,0,1,92.7,19.641v-1.1h2.241v4.034H92.7a2.192,2.192,0,0,0-.655-1.448,1.75,1.75,0,0,0-1.241-.517,1.38,1.38,0,0,0-.931.31.964.964,0,0,0-.379.759,1.286,1.286,0,0,0,.31.793A6.467,6.467,0,0,0,91.631,23.5a18.071,18.071,0,0,1,2.241,1.172,3.983,3.983,0,0,1,1.241,1.379,3.943,3.943,0,0,1,.448,1.966,3.722,3.722,0,0,1-1.138,2.965,4,4,0,0,1-2.69,1,3.1,3.1,0,0,1-2.69-1.276v1.138H86.838v-.069Z" transform="translate(-57.148 -12.159)"/><path class="c" d="M113.9,32.041V29.8h1.586V21.041H113.9V18.8h11.69v4.207h-2.552V21.041h-4.1V24.11h3.31v2.207h-3.31V29.8h4.1V27.834h2.552v4.207Z" transform="translate(-74.969 -12.42)"/><path class="c" d="M167.421,21.041V18.8h-5.793l-2.517,7.759L156.559,18.8H150.8v2.241h1.241V29.8H150.8v2.241h4.862V29.8h-1.241V21.041h0l3.621,11h2.138l3.586-11h.034V29.8h-1.241v2.241h4.862V29.8h-1.241V21.041Z" transform="translate(-99.145 -12.42)"/></g></svg>